# xmcd
#
# Track frame offsets:
#	150
#	16367
#	30545
#	48627
#	60780
#	86587
#	100215
#	118725
#	136225
#	148527
#	160505
#	172505
#	187782
#
# Disc length: 2813 seconds
#
# Revision: 0
# Processed by: cddbd v1.5.2PL0 Copyright (c) Steve Scherf et al.
# Submitted via: audiograbber 1.83.01
#
DISCID=940afb0d
DTITLE=The Men They Couldn't Hang - Silver Town
DYEAR=1989
DGENRE=Folk-Rock
TTITLE0=Rosettes
TTITLE1=A Place In The Sun
TTITLE2=Home Fires
TTITLE3=Diamonds, Gold and Fur
TTITLE4=Company Town
TTITLE5=Lobotomy, Gets 'em Home
TTITLE6=Blackfriars Bridge
TTITLE7=Rain, Steam and Speed
TTITLE8=Down All The Days
TTITLE9=Hellfire and Damnation
TTITLE10=El Vaquero
TTITLE11=A Map Of Morocco
TTITLE12=Rain, Steam and Speed [12" mix]
EXTD=
EXTT0=
EXTT1=
EXTT2=
EXTT3=
EXTT4=
EXTT5=
EXTT6=
EXTT7=
EXTT8=
EXTT9=
EXTT10=
EXTT11=
EXTT12=
PLAYORDER=
